<svg width="47" height="45" viewBox="0 0 47 45" fill="none" xmlns="http://www.w3.org/2000/svg">
<path d="M38.0753 5.7612C34.7379 2.21464 30.0026 0 24.7505 0C16.1217 0 8.88899 5.9772 6.95792 14.0202L9.42476 13.3363C9.53267 13.3065 9.6444 13.3596 9.6894 13.4623C9.7344 13.5649 9.69741 13.6836 9.60208 13.7424C7.63707 14.9602 5.62822 16.4138 3.93511 17.8557C-2.32521 23.2974 -1.2674 28.8247 8.19839 25.0602C14.268 22.7784 12.0495 20.7424 11.2632 19.8451C11.1999 19.773 11.1716 19.6879 11.1789 19.5921C11.1861 19.4963 11.2269 19.4166 11.3001 19.3547C11.8443 18.8956 13.1938 19.3647 13.9405 19.549C15.0368 19.8199 16.1316 20.1188 17.2207 20.421C17.3237 20.4497 17.4243 20.4321 17.5117 20.3703L23.4921 16.131C23.5798 16.0688 23.6297 15.9799 23.6366 15.8727C23.6438 15.7654 23.6057 15.6704 23.5272 15.5975C22.6505 14.7839 20.1604 12.6704 19.7112 12.2876C19.4881 12.0975 18.7292 11.464 17.9246 10.7778C17.1105 10.084 16.2494 9.33637 15.849 8.94176C15.7732 8.86696 15.7385 8.77193 15.7476 8.66584C15.7571 8.55974 15.8082 8.47235 15.896 8.41205C17.0133 7.64572 19.4767 9.00702 20.3842 9.43674C20.5798 9.52948 20.7759 9.62336 20.9715 9.71801C21.7368 10.0886 22.504 10.474 23.2736 10.8644C23.3803 10.9186 23.4978 10.9156 23.6015 10.8557L24.1625 10.5317C24.434 10.3748 24.784 10.4687 24.9408 10.7404C25.0452 10.9217 25.0384 11.1377 24.9415 11.3083C24.8935 11.3934 24.8832 11.4842 24.9114 11.5781C24.9396 11.6716 24.9983 11.7418 25.0857 11.7861C25.7473 12.1212 26.41 12.4532 27.0735 12.7757C27.2825 12.8772 27.6646 13.1272 27.9411 13.1989C28.0509 13.2275 28.1581 13.2043 28.2458 13.1321C29.9568 11.7319 33.3327 9.63863 35.5402 9.30928C36.767 9.12609 38.0082 9.25203 38.3846 9.99355C38.3903 10.005 38.396 10.0149 38.4029 10.0256C38.8563 10.7225 38.3446 11.8613 37.5727 12.8329C36.1839 14.5816 32.6848 16.4608 30.6176 17.2439C30.5116 17.284 30.4377 17.3653 30.4075 17.4748C30.3316 17.7503 30.3568 18.2064 30.34 18.4384C30.2874 19.1746 30.2432 19.915 30.2024 20.6561C30.197 20.7538 30.2283 20.8397 30.295 20.911C30.3618 20.9824 30.4457 21.0191 30.5437 21.0198C30.7397 21.0213 30.9299 21.1232 31.0348 21.3045C31.1915 21.5762 31.0977 21.9266 30.8262 22.0834L30.2653 22.4075C30.1616 22.4674 30.1002 22.5674 30.0937 22.6872C30.035 23.7695 29.9713 24.8465 29.8847 25.9052C29.8027 26.907 29.7493 29.7227 28.5272 30.3073C28.4311 30.3531 28.33 30.3539 28.2336 30.3089C28.1371 30.2638 28.0723 30.186 28.0456 30.0829C27.7645 28.9999 27.1876 25.643 27.0816 25.0629C26.9752 24.482 26.3913 21.2671 26.1256 20.1005C26.1015 19.9955 26.0382 19.9154 25.9421 19.868C25.846 19.8207 25.7435 19.8192 25.6462 19.8642L18.9866 22.928C18.8894 22.9727 18.8242 23.0509 18.7971 23.1547C18.5138 24.2496 18.2255 25.348 17.9117 26.4337C17.697 27.1772 17.5628 28.8209 16.8851 29.051C16.7097 29.1105 16.5198 28.9964 16.4523 28.8235C14.5491 23.9619 10.2873 29.5559 11.7871 31.1901C12.3888 31.8457 12.9982 32.5025 13.6125 33.1605C17.2623 37.0684 21.0866 41.0069 24.4843 44.8733C24.5548 44.9534 24.6433 44.9996 24.7501 45C24.8569 45.0004 24.9457 44.9546 25.0166 44.8748C30.2485 38.9781 39.8775 30.5989 42.421 22.2723C43.1295 19.9531 43.3564 16.8562 42.6845 14.5083C42.45 13.6893 37.9472 16.112 38.1794 15.583C38.4525 14.9609 47.1609 11.2442 46.9977 7.15265C46.9089 4.92808 43.5368 3.91331 38.0753 5.7612Z" fill="#FF715B"/>
</svg>
