<svg width="113" height="24" viewBox="0 0 113 24" fill="none" xmlns="http://www.w3.org/2000/svg">
<path fill-rule="evenodd" clip-rule="evenodd" d="M66.8339 1.07523L66.9049 1.10473C67.3481 1.29983 67.6717 1.64542 67.8404 2.05075C68.0098 2.45986 68.0211 2.93099 67.8358 3.36808C67.4201 4.42428 66.9315 5.70197 66.3973 7.09913C64.4475 12.1981 61.8892 18.8883 60.0438 22.2099C59.9039 22.5427 59.677 22.8141 59.398 23.0017C59.1144 23.193 58.7771 23.2996 58.424 23.2996C58.061 23.2996 57.7207 23.1938 57.4341 23.0055C57.1475 22.8157 56.9176 22.5427 56.7777 22.2099C55.2366 19.4359 53.9135 15.8347 52.5903 12.233C51.4398 9.10126 50.2891 5.96917 48.9947 3.38018C48.8186 2.9393 48.8359 2.46289 49.0068 2.05C49.177 1.63937 49.5014 1.28849 49.9393 1.09641L49.9453 1.0949C50.3975 0.903574 50.8762 0.918698 51.2906 1.08809C51.7126 1.26126 52.0695 1.59627 52.2631 2.03638L58.424 16.9285C59.0947 15.309 59.7959 13.6662 60.5011 12.0142C61.9276 8.67245 63.37 5.29353 64.6068 1.99555C64.7898 1.58039 65.1316 1.26353 65.5332 1.0949C65.9362 0.923992 66.4028 0.902062 66.8339 1.07523ZM89.2973 19.6955H78.0561V13.8613H87.719C88.2091 13.8613 88.6492 13.6662 88.9683 13.3494C89.2859 13.0317 89.4803 12.5916 89.4803 12.0993C89.4803 11.6191 89.2829 11.1745 88.9615 10.8531C88.6454 10.537 88.2076 10.3381 87.7183 10.3381H78.0554V4.58558H89.0243C89.5158 4.58558 89.9567 4.39199 90.2743 4.07363C90.5919 3.75602 90.7863 3.31514 90.7863 2.8236C90.7863 2.33206 90.5919 1.89195 90.2728 1.57358C89.9552 1.25673 89.5151 1.06162 89.025 1.06162H76.2949C75.8147 1.06162 75.3701 1.25899 75.0487 1.58039C74.7326 1.89648 74.5329 2.33433 74.5329 2.8236V21.4567C74.5329 21.9453 74.7318 22.3831 75.0487 22.7C75.3701 23.0213 75.8147 23.2187 76.2949 23.2187H89.2973C89.7888 23.2187 90.2289 23.0236 90.5458 22.7052C90.8641 22.3869 91.0592 21.9468 91.0592 21.4567C91.0592 20.966 90.8649 20.5258 90.5473 20.2067C90.2289 19.8899 89.7888 19.6955 89.2973 19.6955ZM18.2403 20.0199C17.8932 19.759 17.447 19.6252 16.9857 19.6683C16.935 19.6675 16.7997 19.6585 16.6152 19.5647C16.3792 19.4437 16.076 19.1926 15.7697 18.6777C15.344 17.9222 14.8623 17.2189 14.339 16.5754C13.9548 16.102 13.5472 15.6619 13.1237 15.2573L13.3597 15.162C13.644 15.041 13.9155 14.9049 14.1726 14.762L14.1771 14.7605C15.2615 14.1388 16.0956 13.2964 16.6583 12.2672C17.2179 11.2448 17.5075 10.0447 17.5075 8.6994C17.5075 8.09745 17.4644 7.51668 17.3721 6.96388C17.2799 6.41185 17.1362 5.88779 16.935 5.39852C16.7619 4.95084 16.5516 4.5319 16.3044 4.14774C16.0571 3.76434 15.7659 3.40892 15.4317 3.08375C15.0112 2.66405 14.5136 2.29199 13.9586 1.98421C13.4156 1.68399 12.8227 1.44805 12.1981 1.29379C11.3012 1.06314 10.6108 1.06238 10.4966 1.06238H2.41799C1.92645 1.06238 1.48557 1.25673 1.16948 1.5751C0.850353 1.89346 0.656006 2.33358 0.656006 2.82361V21.484C0.656006 21.9642 0.853378 22.4088 1.17477 22.7302C1.49087 23.0463 1.92872 23.2459 2.41799 23.2459C2.90574 23.2459 3.34284 23.0471 3.6612 22.7287C3.98259 22.4073 4.17997 21.9634 4.17997 21.484V4.58559H10.4974C10.5443 4.58559 10.942 4.59618 11.4585 4.74061C11.7346 4.81775 12.0416 4.93269 12.3403 5.10284C12.58 5.24652 12.7895 5.40986 12.971 5.59287C13.1547 5.77663 13.3113 5.98156 13.4428 6.20616C13.6243 6.52074 13.7589 6.88448 13.8489 7.29435C13.9412 7.71405 13.9858 8.1829 13.9858 8.69864C13.9858 9.43746 13.8648 10.0447 13.61 10.5347C13.3612 11.0142 12.9785 11.3953 12.4492 11.697C11.9599 11.9731 11.3595 12.1818 10.6501 12.3239C9.92796 12.4676 9.09688 12.5402 8.15766 12.5402C7.70015 12.5402 7.27515 12.7104 6.9583 12.9962C6.64371 13.279 6.43349 13.676 6.39794 14.1336C6.34879 14.5865 6.47432 15.0153 6.72463 15.3533C6.97645 15.6936 7.35531 15.9417 7.81055 16.0286L7.85063 16.0369H7.88542C7.9013 16.0369 8.11153 16.105 8.51383 16.2963C8.7596 16.4135 9.05453 16.5739 9.37894 16.7871L9.38197 16.7886C10.03 17.2038 10.635 17.7173 11.1916 18.3215C11.7565 18.934 12.2715 19.6411 12.7343 20.4328C13.1857 21.2178 13.6954 21.7713 14.1915 22.1653C14.6936 22.5638 15.1821 22.8013 15.5814 22.9488L15.5973 22.9533C15.9497 23.0667 16.2665 23.1287 16.5342 23.159C16.9766 23.2096 17.3011 23.1779 17.4372 23.159C17.9136 23.0886 18.3197 22.824 18.5881 22.4602C18.8558 22.0965 18.9882 21.6292 18.9178 21.1543C18.8483 20.6809 18.5942 20.2846 18.2403 20.0199ZM112.488 20.2347C112.17 19.9171 111.73 19.7227 111.239 19.7227H101.14V2.82361C101.14 2.33358 100.946 1.89346 100.628 1.57434C100.311 1.25673 99.8706 1.06238 99.3791 1.06238C98.8989 1.06238 98.4542 1.25976 98.1329 1.58115C97.8168 1.89725 97.6171 2.33509 97.6171 2.82436V21.4847C97.6171 21.9717 97.816 22.4088 98.1344 22.7279C98.4565 23.0493 98.9004 23.2467 99.3791 23.2467H111.239C111.73 23.2467 112.171 23.0516 112.488 22.7347C112.806 22.4171 113 21.977 113 21.4847C113 20.9924 112.806 20.5516 112.488 20.2347ZM37.1305 1.33235C37.4065 1.50401 37.6364 1.75281 37.7786 2.05454C38.7967 4.1362 39.81 6.22373 40.8237 8.31208L40.824 8.31265L40.8242 8.31312C42.8341 12.4536 44.8455 16.5974 46.8993 20.7051C47.1012 21.1255 47.1163 21.5936 46.9734 22.0088C46.8312 22.4232 46.5303 22.7877 46.1022 23.0017L46.0644 23.0213C45.6266 23.2399 45.1502 23.2543 44.7312 23.1121C44.3123 22.9707 43.9478 22.6705 43.7345 22.2598C43.2704 21.3316 42.8189 20.3897 42.3681 19.4494L42.3679 19.449L42.3677 19.4486C42.1378 18.969 41.908 18.4898 41.6769 18.0129C41.056 17.8481 40.417 17.7528 39.7584 17.7294C39.0377 17.7036 38.2898 17.7634 37.5154 17.9071C36.791 18.0379 36.0506 18.2375 35.2937 18.5067C34.5382 18.7752 33.7669 19.1147 32.9827 19.5269C32.0684 20.0109 31.2434 20.5342 30.5522 21.0151C29.1956 21.9589 28.3645 22.7302 28.3471 22.7476C28.1905 22.9041 27.9977 23.0282 27.792 23.1129C27.5795 23.1998 27.3534 23.2459 27.1379 23.2459C26.9587 23.2459 26.7658 23.2172 26.5753 23.1537C26.3991 23.0955 26.2282 23.0077 26.0754 22.889C25.7427 22.6395 25.5143 22.2833 25.4205 21.8946C25.3275 21.5089 25.3638 21.0892 25.5551 20.7066L34.6123 2.03866C34.7696 1.74222 34.998 1.49645 35.271 1.32706C35.5455 1.15767 35.8601 1.06238 36.1913 1.06238C36.5263 1.06238 36.853 1.15994 37.1305 1.33235ZM36.8575 14.4519C37.4806 14.3415 38.0947 14.2644 38.7034 14.2296C39.0717 14.2084 39.4377 14.2024 39.8015 14.2137L36.1943 6.83911L31.6253 16.2812C32.4367 15.8638 33.2534 15.5076 34.0686 15.2142C35.0093 14.8754 35.9433 14.6221 36.8545 14.4534L36.8575 14.4519Z" fill="#2C2C2C"/>
</svg>
