<svg width="150" height="31" viewBox="0 0 150 31" fill="none" xmlns="http://www.w3.org/2000/svg">
<path fill-rule="evenodd" clip-rule="evenodd" d="M88.7103 0.948139L88.8047 0.987945C89.393 1.25128 89.8227 1.71773 90.0466 2.26481C90.2715 2.81699 90.2865 3.45287 90.0406 4.04282C89.4887 5.46833 88.8401 7.19277 88.1309 9.07844C85.5423 15.9607 82.1459 24.9906 79.696 29.4739C79.5102 29.923 79.209 30.2894 78.8386 30.5426C78.4621 30.8008 78.0144 30.9447 77.5455 30.9447C77.0636 30.9447 76.6119 30.8018 76.2314 30.5477C75.8509 30.2915 75.5457 29.923 75.3599 29.4739C73.3139 25.7297 71.5575 20.8691 69.8008 16.0079C68.2733 11.781 66.7457 7.55354 65.0274 4.05915C64.7935 3.4641 64.8166 2.82107 65.0434 2.26379C65.2693 1.70956 65.7 1.23597 66.2813 0.976718L66.2893 0.974677C66.8897 0.716446 67.5252 0.73686 68.0753 0.965491C68.6355 1.19922 69.1094 1.65138 69.3664 2.24541L77.5455 22.3455C78.4359 20.1597 79.3669 17.9423 80.3031 15.7127C82.1969 11.2022 84.1118 6.64164 85.7537 2.1903C85.9967 1.62995 86.4505 1.20229 86.9836 0.974677C87.5187 0.744005 88.1381 0.714405 88.7103 0.948139ZM118.533 26.0802H103.609V18.2057H116.437C117.088 18.2057 117.672 17.9423 118.096 17.5147C118.518 17.086 118.776 16.492 118.776 15.8275C118.776 15.1794 118.514 14.5792 118.087 14.1454C117.667 13.7188 117.086 13.4503 116.436 13.4503H103.608V5.68608H118.17C118.823 5.68608 119.408 5.42479 119.83 4.99509C120.251 4.56641 120.509 3.97135 120.509 3.30792C120.509 2.64448 120.251 2.05045 119.828 1.62074C119.406 1.19308 118.822 0.929747 118.171 0.929747H101.271C100.633 0.929747 100.043 1.19614 99.6164 1.62993C99.1967 2.05657 98.9317 2.64754 98.9317 3.30792V28.4573C98.9317 29.1167 99.1957 29.7076 99.6164 30.1353C100.043 30.5691 100.633 30.8355 101.271 30.8355H118.533C119.185 30.8355 119.77 30.5721 120.19 30.1424C120.613 29.7127 120.872 29.1187 120.872 28.4573C120.872 27.7949 120.614 27.2009 120.192 26.7701C119.769 26.3425 119.185 26.0802 118.533 26.0802ZM149.32 26.8082C148.899 26.3795 148.314 26.1172 147.662 26.1172H134.255V3.30818C134.255 2.64679 133.997 2.05276 133.576 1.62203C133.154 1.19335 132.57 0.931037 131.917 0.931037C131.28 0.931037 130.689 1.19743 130.263 1.63122C129.843 2.05786 129.578 2.64883 129.578 3.3092V28.4953C129.578 29.1526 129.842 29.7426 130.265 30.1733C130.692 30.6071 131.282 30.8735 131.917 30.8735H147.662C148.314 30.8735 148.9 30.6102 149.32 30.1825C149.742 29.7538 150 29.1598 150 28.4953C150 27.8309 149.742 27.2358 149.32 26.8082ZM24.1983 26.5185C23.7375 26.1663 23.1451 25.9857 22.5327 26.0439C22.4655 26.0428 22.2858 26.0306 22.0408 25.904C21.7276 25.7407 21.325 25.4019 20.9184 24.7068C20.3532 23.6871 19.7137 22.7379 19.0189 21.8693C18.5089 21.2304 17.9678 20.6363 17.4056 20.0903L17.7188 19.9617C18.0963 19.7984 18.4567 19.6146 18.7981 19.4217L18.8041 19.4197C20.2438 18.5807 21.3511 17.4437 22.098 16.0545C22.8409 14.6746 23.2255 13.0548 23.2255 11.239C23.2255 10.4265 23.1682 9.64266 23.0457 8.89655C22.9233 8.15146 22.7325 7.44414 22.4655 6.78376C22.2356 6.17952 21.9565 5.61407 21.6282 5.09557C21.2999 4.57809 20.9134 4.09837 20.4696 3.65948C19.9114 3.09301 19.2509 2.59084 18.514 2.17542C17.7931 1.77021 17.006 1.45176 16.1768 1.24355C14.9861 0.932241 14.0695 0.93122 13.9179 0.93122H3.19282C2.54026 0.93122 1.95496 1.19353 1.53531 1.62324C1.11165 2.05294 0.853638 2.64697 0.853638 3.30837V28.4945C0.853638 29.1426 1.11567 29.7428 1.54234 30.1766C1.96199 30.6032 2.54327 30.8727 3.19282 30.8727C3.84036 30.8727 4.42064 30.6042 4.8433 30.1745C5.26997 29.7407 5.532 29.1416 5.532 28.4945V5.68654H13.9189C13.9812 5.68654 14.5092 5.70083 15.1949 5.89577C15.5614 5.99988 15.969 6.15503 16.3655 6.38468C16.6838 6.57861 16.9619 6.79907 17.2028 7.04607C17.4468 7.2941 17.6546 7.5707 17.8293 7.87384C18.0702 8.29844 18.2489 8.78938 18.3684 9.34259C18.4909 9.90906 18.5501 10.5419 18.5501 11.238C18.5501 12.2352 18.3895 13.0548 18.0511 13.7162C17.7208 14.3633 17.2129 14.8777 16.5101 15.2849C15.8605 15.6575 15.0634 15.9392 14.1217 16.1311C13.163 16.325 12.0596 16.423 10.8127 16.423C10.2053 16.423 9.64113 16.6526 9.22048 17.0385C8.80284 17.4202 8.52375 17.956 8.47656 18.5736C8.4113 19.1849 8.57796 19.7637 8.91026 20.2199C9.24457 20.6792 9.74755 21.014 10.3519 21.1314L10.4051 21.1426H10.4513C10.4724 21.1426 10.7515 21.2344 11.2856 21.4927C11.6119 21.6509 12.0034 21.8673 12.4341 22.1551L12.4381 22.1571C13.2985 22.7175 14.1016 23.4105 14.8405 24.226C15.5905 25.0528 16.2742 26.0071 16.8886 27.0758C17.4879 28.1352 18.1646 28.8824 18.8232 29.4141C19.4898 29.952 20.1383 30.2725 20.6684 30.4715L20.6895 30.4777C21.1573 30.6308 21.578 30.7145 21.9334 30.7553C22.5207 30.8237 22.9514 30.7808 23.1321 30.7553C23.7646 30.6604 24.3037 30.3031 24.6601 29.8122C25.0155 29.3212 25.1912 28.6905 25.0978 28.0495C25.0054 27.4105 24.6681 26.8757 24.1983 26.5185ZM49.2766 1.29542C49.6431 1.52711 49.9483 1.86291 50.137 2.27016C51.4887 5.07976 52.8339 7.89727 54.1796 10.7159L54.1798 10.7163L54.1799 10.7165L54.1799 10.7166C56.8483 16.3054 59.5188 21.8986 62.2455 27.443C62.5136 28.0105 62.5337 28.6423 62.3439 29.2027C62.1552 29.762 61.7556 30.254 61.1874 30.5428L61.1372 30.5693C60.5559 30.8643 59.9234 30.8837 59.3672 30.6918C58.8111 30.501 58.3272 30.0958 58.0441 29.5415C57.4279 28.2886 56.8284 27.0174 56.2299 25.7482L56.2299 25.7481L56.2296 25.7474L56.2285 25.7451C55.9235 25.0984 55.6189 24.4523 55.3123 23.8094C54.4881 23.5869 53.6398 23.4583 52.7653 23.4267C51.8086 23.392 50.8157 23.4726 49.7876 23.6665C48.8259 23.8431 47.843 24.1126 46.8381 24.4759C45.8351 24.8383 44.8111 25.2965 43.77 25.8528C42.5563 26.506 41.461 27.2123 40.5434 27.8615C38.7423 29.1353 37.639 30.1764 37.6159 30.1999C37.4081 30.4111 37.152 30.5785 36.879 30.6928C36.5969 30.8102 36.2967 30.8725 36.0106 30.8725C35.7726 30.8725 35.5166 30.8337 35.2636 30.748C35.0297 30.6694 34.8028 30.551 34.6 30.3907C34.1583 30.0539 33.8551 29.5732 33.7306 29.0485C33.6071 28.528 33.6553 27.9615 33.9093 27.4451L45.9335 2.24873C46.1423 1.84862 46.4455 1.5169 46.8079 1.28827C47.1724 1.05964 47.59 0.931037 48.0297 0.931037C48.4745 0.931037 48.9082 1.0627 49.2766 1.29542ZM48.9142 19.0031C49.7415 18.8541 50.5567 18.7499 51.3648 18.703C51.8538 18.6744 52.3397 18.6663 52.8226 18.6816L48.0338 8.72796L41.9679 21.4721C43.0452 20.9087 44.1294 20.4279 45.2117 20.0319C46.4606 19.5747 47.7005 19.2327 48.9102 19.0051L48.9142 19.0031Z" fill="#2C2C2C"/>
</svg>
